<svg width="1614" height="1566" viewBox="0 0 1614 1566" fill="none" xmlns="http://www.w3.org/2000/svg">
<g filter="url(#filter0_d_219_194)">
<path d="M1585.61 1417.34C1608.83 1417.34 1630.18 1419.4 1529.76 1427.65C1404.24 1437.97 1662.45 1507.04 1467.72 1535.3C1272.99 1563.55 1362.72 1508.84 1265.35 1455.91C1167.99 1402.98 1192.33 1498.07 1019.55 1417.34C846.78 1336.6 1351.74 1431.24 1049.62 1251.38C747.506 1071.53 1587.51 1151.36 1143.65 1024.43C699.778 897.499 959.894 1131.63 710.278 1036.54C460.662 941.454 629.618 925.756 537.981 906.469C446.344 887.183 313.183 954.013 275.478 872.83C237.773 791.647 413.887 815.403 243.499 710C225.999 662.333 267.699 564.1 574.499 552.5C957.999 538 693.999 421 836.499 347.5C978.999 274 553.999 102.5 364.999 150.5C175.999 198.5 -69.5006 114.5 33.4994 3.5" stroke="#24482A" stroke-width="10"/>
</g>
<defs>
<filter id="filter0_d_219_194" x="0.15625" y="0.098999" width="1613.84" height="1565.9" filterUnits="userSpaceOnUse" color-interpolation-filters="sRGB">
<feFlood flood-opacity="0" result="BackgroundImageFix"/>
<feColorMatrix in="SourceAlpha" type="matrix" values="0 0 0 0 0 0 0 0 0 0 0 0 0 0 0 0 0 0 127 0" result="hardAlpha"/>
<feOffset dy="14"/>
<feGaussianBlur stdDeviation="2"/>
<feComposite in2="hardAlpha" operator="out"/>
<feColorMatrix type="matrix" values="0 0 0 0 0.262083 0 0 0 0 0.425 0 0 0 0 0.289453 0 0 0 1 0"/>
<feBlend mode="normal" in2="BackgroundImageFix" result="effect1_dropShadow_219_194"/>
<feBlend mode="normal" in="SourceGraphic" in2="effect1_dropShadow_219_194" result="shape"/>
</filter>
</defs>
</svg>
